<?xml version="1.0" encoding="utf-8"?>
<!-- Generator: Adobe Illustrator 25.0.0, SVG Export Plug-In . SVG Version: 6.00 Build 0)  -->
<!-- CREDITs:  "https ://  logowik . com" -->
<svg version="1.1" id="katman_1"
	xmlns="http://www.w3.org/2000/svg"
	xmlns:xlink="http://www.w3.org/1999/xlink" x="0px" y="0px" viewBox="0 0 3949.2 2777.3" style="enable-background:new 0 0 3949.2 2777.3;" xml:space="preserve">
	<style type="text/css">
	.st0{fill:#B7CA9D;}
	.st1{fill:#4B612C;}
	.st2{fill:#759C3E;}
	</style>
	<path class="st0" d="M3078.1,1856.8l-1103.1-162L871.2,1857l1103.5,409L3078.1,1856.8"/>
	<path class="st1" d="M1092,1837.9l186.5,58.3l17-19.3V572.1l-17-22.3L1092,621.2V1837.9"/>
	<path class="st2" d="M1938.7,1780.2l-660.2,116V549.9l660.2,148.5V1780.2"/>
	<path class="st1" d="M1644.3,2008.4l-257.3-79.3V267.4l257.3-128.7l22.5,24.5V1981L1644.3,2008.4"/>
	<path class="st2" d="M2526.1,1801.5l-881.7,206.9V138.7l881.7,343.7V1801.5"/>
	<path class="st1" d="M1974.3,2248.3L871.2,1857V2084l1103.1,551.6V2248.3"/>
	<path class="st2" d="M3078.1,2083.7l-1103.8,551.8v-387.3l1103.8-391.5V2083.7"/>
	<path class="st0" d="M2768.1,1480.8h-267.5l-762.5,51.9l236.5,43.6L2768.1,1480.8"/>
	<path class="st1" d="M1738.1,2034.4l236.4,70.9l6.8-7.3l-0.2-533.2l-6.8-6.5l-236.2-25.5L1738.1,2034.4"/>
	<path class="st2" d="M2768.1,1480.8l-793.7,77.4l0.2,547.1l793.5-238.9V1480.8"/>
</svg>
